<?xml version="1.0" encoding="utf-8"?>
<!-- Generator: Adobe Illustrator 25.0.1, SVG Export Plug-In . SVG Version: 6.00 Build 0)  -->
<svg version="1.1" id="Layer_1" xmlns="http://www.w3.org/2000/svg" xmlns:xlink="http://www.w3.org/1999/xlink" x="0px" y="0px"
	 viewBox="0 0 210.2 28.9" style="enable-background:new 0 0 210.2 28.9;" xml:space="preserve">
<style type="text/css">
	<!-- .st0{fill-rule:evenodd;clip-rule:evenodd;fill:#FF1100;} -->
	.st0{fill-rule:evenodd;clip-rule:evenodd;fill:#202a41;}
</style>
<g transform="translate(0)">
	<g transform="translate(0 0)">
		<g transform="translate(0 0)">
			<path class="st0" d="M41.6,0v6.3h6.8V10h-6.8v10.2c0,2.7,0.9,3.9,2.5,3.9c1.2-0.1,2.3-0.4,3.4-1l1.3,3.8c-1.7,1-3.6,1.6-5.5,1.7
				c-3.6,0-6.6-2.5-6.6-7.5V0H41.6z M104.1,5.2c3.7,0,6.5,1.4,8.2,4.1V5.4h4.9v23h-4.9v-3.9c-1.7,2.7-4.8,4.3-8,4.1
				c-6.6,0-11-4.8-11-11.8C93.2,10,97.6,5.3,104.1,5.2z M90.6,15.3l-16.7,5c1.1,2.7,3.7,4.4,6.6,4.3c2.6,0,5.1-1.3,6.7-3.4l2.9,2.7
				c-2.4,3-6.1,4.8-9.9,4.7c-7.1,0-12-4.7-12-11.7c0-6.7,4.4-11.6,11.5-11.7C86,5.2,90.2,9,90.6,15.3z M131.4,5.2
				c2.8,0,5.6,0.8,8,2.3l-1.8,3.7c-2-1.2-4.3-1.9-6.6-2c-1.9,0-3.4,0.6-3.4,2.3c0,4.2,12.2,1.9,12.2,10.3c0,4.7-4.2,6.8-8.8,6.8
				c-3.4,0.1-6.6-1.1-9.2-3.2l1.8-3.5c2.2,1.8,4.9,2.8,7.7,2.8c2.1,0,3.8-0.7,3.8-2.5c0-4.7-12.1-2.1-12-10.4
				C122.9,7.2,127,5.2,131.4,5.2z M149.1,5.4v12.9c0,3.5,2,5.6,5.4,5.6c4-0.1,6.3-3.2,6.3-7.2V5.4h5v23h-5v-4.5
				c-1.6,3.2-4.4,4.6-8.2,4.7c-5.3,0-8.4-3.4-8.4-8.9V5.4H149.1z M210.2,15.3l-16.7,5c1.1,2.7,3.7,4.4,6.6,4.3
				c2.6,0,5.1-1.3,6.7-3.4l2.9,2.7c-2.4,3-6.1,4.8-9.9,4.7c-7.1,0-12-4.7-12-11.7c0-6.7,4.4-11.6,11.5-11.7
				C205.7,5.2,209.8,9,210.2,15.3L210.2,15.3z M66.3,5.3V10c-4.6-0.3-7.6,2.5-7.9,6.4v12h-5v-23h5V10C59.8,7,62.9,5.1,66.3,5.3z
				 M185.9,5.3V10c-4.6-0.3-7.6,2.5-7.9,6.4v12h-5v-23h5V10C179.4,7,182.6,5.1,185.9,5.3L185.9,5.3z M24.6,24.2v3.7H0v-3.7H24.6z
				 M105.3,9.5c-4.1,0-7,3.2-7.1,7.6c0,4.4,2.9,7.5,7.1,7.5c3.9,0,6.6-2.7,7-6.6v-1.7C111.9,12.2,109.2,9.5,105.3,9.5L105.3,9.5z
				 M24.6,16.7v3.7H0v-3.7H24.6z M80,9.3c-4.2,0-6.9,2.6-6.9,7.4v0l12.6-3.8C84.9,10.6,82.6,9.1,80,9.3z M199.7,9.3
				c-4.2,0-6.9,2.6-6.9,7.4v0l12.6-3.8C204.6,10.6,202.2,9.1,199.7,9.3L199.7,9.3z M12.3,0.7c6.7,0,12.1,5.3,12.3,12V13h-4.4
				c0-4.3-3.5-7.9-7.9-7.9c-4.2,0-7.7,3.3-7.9,7.6l0,0.3H0C0,6.2,5.5,0.7,12.3,0.7C12.3,0.7,12.3,0.7,12.3,0.7z"/>
		</g>
	</g>
</g>
</svg>
